<?xml version="1.0" standalone="no"?><!DOCTYPE svg PUBLIC "-//W3C//DTD SVG 1.1//EN" "http://www.w3.org/Graphics/SVG/1.1/DTD/svg11.dtd"><svg t="1753970184604" class="icon" viewBox="0 0 1024 1024" version="1.1" xmlns="http://www.w3.org/2000/svg" p-id="2070" xmlns:xlink="http://www.w3.org/1999/xlink" width="200" height="200"><path d="M512 985.6c-261.1456 0-473.6-197.2992-473.6-439.808C38.4 361.0624 120.576 140.8 512 140.8c216.0384 0 473.6 70.272 473.6 404.992 0 242.5088-212.4544 439.808-473.6 439.808z" fill="#F78F8F" p-id="2071"></path><path d="M512 153.6c305.7664 0 460.8 131.9424 460.8 392.192C972.8 781.2352 766.08 972.8 512 972.8S51.2 781.2352 51.2 545.792C51.2 285.5424 206.2336 153.6 512 153.6m0-25.6C243.3792 128 25.6 231.9616 25.6 545.792 25.6 795.7504 243.3792 998.4 512 998.4s486.4-202.6496 486.4-452.608C998.4 231.9616 780.6208 128 512 128z" fill="#C74343" p-id="2072"></path><path d="M550.8864 423.7824c-56.448-22.912-82.1248-72.0128-76.3392-146.0992l1.9712-25.1136-21.4528 13.2352a231.2448 231.2448 0 0 1-121.472 34.9184 212.608 212.608 0 0 1-35.5328-2.944c9.6768-27.392 37.376-90.624 89.9072-102.6816l38.7072-8.9088-36.6336-15.3856c-39.5264-16.5888-66.6624-41.5744-69.7344-106.7264 72.7552 0.8448 113.6128 10.24 156.416 69.504l14.464 20.0192 8.0128-23.3728c19.3024-56.1664 43.9296-83.5328 52.4032-91.7504a79.6672 79.6672 0 0 1 43.9808 16.4864c-23.1424 37.76-32.2816 71.7056-32.6656 73.216l-9.7536 36.9152 30.0288-23.5776 4.8384-3.968c16.128-13.4144 52.5312-43.6992 115.4304-47.5392-4.5312 52.3776-35.328 79.9232-54.272 92.0576l-27.6736 17.6896 32.384 5.6832c45.3888 7.9872 75.136 39.7312 86.016 69.0432-8.6528 3.3792-20.48 5.0944-35.2768 5.0944-36.2752 0-80.2048-10.2144-109.2608-16.9728l-27.1616-6.3232 11.0592 24.2688c19.968 38.1952 8.4736 94.8736-28.3904 143.232z" fill="#BAE0BD" p-id="2073"></path><path d="M556.5696 51.6864c5.5552 0.7936 13.312 2.7392 21.7856 7.3216-19.5328 34.9184-27.4432 64.4608-27.8272 65.9456l-19.4048 73.7792 59.9808-47.1296c1.4336-1.1264 3.1488-2.5344 5.12-4.1984 13.7216-11.4176 43.008-35.8144 92.1344-42.9824a104.4736 104.4736 0 0 1-46.08 66.8416l-55.3472 35.4304 64.7168 11.3664a100.9408 100.9408 0 0 1 70.016 47.7184 130.7136 130.7136 0 0 1-17.0752 0.9984c-34.7904 0-77.824-10.0096-106.2912-16.64l-1.8688-0.4352-54.3232-12.6464 25.8304 49.4336c16.6144 31.7952 7.936 78.8992-21.2992 121.344-44.3648-22.1952-64.3072-65.5616-59.3664-129.152l3.9168-50.2272-42.88 26.4448a218.3424 218.3424 0 0 1-114.7904 32.9984c-6.4768 0-12.416-0.3072-17.6896-0.768 12.0576-28.416 36.096-70.656 74.9568-79.5904l77.44-17.792-73.2416-30.7712c-33.024-13.8752-55.2448-33.3312-60.8256-81.7664 65.5872 2.2784 96.9728 15.104 132.1728 63.8464l28.928 40.0384 16.0256-46.72c16.0512-46.6944 35.712-72.192 45.2864-82.688M549.5808 25.5232c-1.8432 0-2.8416 0.1024-2.8416 0.1024s-34.2528 26.4704-59.648 100.4544C439.2704 59.8784 393.2672 51.2 307.2 51.2c0 75.136 26.752 109.9264 77.8752 131.3792C309.4016 199.9872 281.6 307.2 281.6 307.2s20.3776 6.2976 51.9424 6.2976c33.7152 0 80.1792-7.168 128.2304-36.8128-6.144 78.7456 22.5024 138.0608 93.3376 162.3552 44.7232-53.9392 59.0336-119.3984 35.5072-164.4032 28.7488 6.6816 75.4176 17.7408 113.9712 17.7408 20.4288 0 38.5792-3.0976 50.6112-11.5968-8.1152-33.7408-40.832-77.7216-99.1232-87.936C681.6512 176.4608 716.8 140.672 716.8 76.8c-83.2256 0-127.2064 43.4176-141.5168 54.656 0 0 10.2144-38.8608 37.0688-78.976-25.8304-24.8064-53.9136-26.9568-62.7712-26.9568z" fill="#5E9C76" p-id="2074"></path></svg>